<svg width="342" height="149" viewBox="0 0 342 149" fill="none" xmlns="http://www.w3.org/2000/svg">
<path d="M0 65.1442C0 31.4062 0 14.5372 10.934 5.53681C21.8679 -3.46352 38.4225 -0.221436 71.5315 6.26274L306.456 52.2711C323.466 55.6024 331.971 57.268 336.986 63.3597C342 69.4514 342 78.1179 342 95.4508V104.254C342 124.996 342 135.367 335.556 141.81C329.113 148.254 318.742 148.254 298 148.254H44C23.2582 148.254 12.8873 148.254 6.44365 141.81C0 135.367 0 124.996 0 104.254V65.1442Z" fill="url(#paint0_linear_3_465)"/>
<defs>
<linearGradient id="paint0_linear_3_465" x1="0" y1="108.406" x2="354.142" y2="108.406" gradientUnits="userSpaceOnUse">
<stop stop-color="#5936B4"/>
<stop offset="1" stop-color="#362A84"/>
</linearGradient>
</defs>
</svg>
